<?xml version="1.0" encoding="UTF-8" standalone="no"?>
<!-- Generator: Adobe Illustrator 26.0.0, SVG Export Plug-In . SVG Version: 6.00 Build 0)  -->

<svg
   xmlns:dc="http://purl.org/dc/elements/1.1/"
   xmlns:cc="http://creativecommons.org/ns#"
   xmlns:rdf="http://www.w3.org/1999/02/22-rdf-syntax-ns#"
   xmlns:svg="http://www.w3.org/2000/svg"
   xmlns="http://www.w3.org/2000/svg"
   xmlns:sodipodi="http://sodipodi.sourceforge.net/DTD/sodipodi-0.dtd"
   xmlns:inkscape="http://www.inkscape.org/namespaces/inkscape"
   version="1.1"
   id="Layer_1"
   x="0px"
   y="0px"
   viewBox="0 0 713.34 713.34"
   xml:space="preserve"
   sodipodi:docname="logo-sm-light.svg"
   width="713.34003"
   height="713.34003"
   inkscape:version="0.92.1 r15371"><metadata
     id="metadata5165"><rdf:RDF><cc:Work
         rdf:about=""><dc:format>image/svg+xml</dc:format><dc:type
           rdf:resource="http://purl.org/dc/dcmitype/StillImage" /><dc:title></dc:title></cc:Work></rdf:RDF></metadata><defs
     id="defs5163" /><sodipodi:namedview
     pagecolor="#ffffff"
     bordercolor="#666666"
     borderopacity="1"
     objecttolerance="10"
     gridtolerance="10"
     guidetolerance="10"
     inkscape:pageopacity="0"
     inkscape:pageshadow="2"
     inkscape:window-width="2560"
     inkscape:window-height="1361"
     id="namedview5161"
     showgrid="false"
     inkscape:zoom="0.40934195"
     inkscape:cx="1664.882"
     inkscape:cy="149.47308"
     inkscape:window-x="2551"
     inkscape:window-y="-9"
     inkscape:window-maximized="1"
     inkscape:current-layer="Layer_1"
     showguides="true"
     inkscape:guide-bbox="true"><sodipodi:guide
       position="1201.929,256.50925"
       orientation="0,1"
       id="guide4514"
       inkscape:locked="false" /></sodipodi:namedview><style
     type="text/css"
     id="style5110">
	.st0{fill:#333333;}
	.st1{fill:#FFFFFF;}
</style><g
     id="g5158"
     transform="translate(658.14823,-236.65702)"
     style="fill:#ffffff;fill-opacity:1;stroke:#333333"><rect
       style="opacity:1;fill:#ffffff;fill-opacity:1;stroke:#333333;stroke-width:7.15054178;stroke-linejoin:round;stroke-miterlimit:4;stroke-dasharray:none;stroke-opacity:1"
       id="rect4516"
       width="664.60968"
       height="667.05261"
       x="-630.78973"
       y="262.02896"
       ry="60.683067" /><text
       xml:space="preserve"
       style="font-style:normal;font-variant:normal;font-weight:normal;font-stretch:normal;font-size:24px;line-height:1.25;font-family:lea;-inkscape-font-specification:lea;letter-spacing:0px;word-spacing:0px;fill:#ffffff;fill-opacity:1;stroke:#333333"
       x="613.23529"
       y="732.34174"
       id="text4508"><tspan
         sodipodi:role="line"
         id="tspan4506"
         x="613.23529"
         y="753.57611"></tspan><tspan
         sodipodi:role="line"
         x="613.23529"
         y="783.57611"
         id="tspan4510" /><tspan
         sodipodi:role="line"
         x="613.23529"
         y="813.57611"
         id="tspan4512" /></text>
</g><path
     class="st0"
     d="m 603.56822,588.12077 -0.15,-74.96 c 0.25,-26.04 -17.38,-48.09 -41.44,-54.49 -3.04,-72.09 -35.36,-117.58 -73.44,-141.54 3.97,-15.35 6.02,-31.27 6.02,-47.54 0,-104.06 -84.67,-188.729988 -188.74,-188.729988 -104.07,0 -188.73,84.669988 -188.73,188.729988 0,104.06 84.67,188.73 188.73,188.73 9.74,0 17.64,-7.89 17.64,-17.63 0,-9.74 -7.9,-17.64 -17.64,-17.64 -84.62,0 -153.46,-68.84 -153.46,-153.46 0,-84.62 68.84,-153.46 153.46,-153.46 84.62,0 153.46,68.84 153.46,153.46 0,11.03 -1.16,21.86 -3.41,32.39 -1.93,-0.61 -3.86,-1.18 -5.78,-1.68 -45.22,-11.97 -89.05,1.18 -106.58,31.97 -11.45,20.12 -11.48,41.17 -0.07,57.75 12.55,18.24 36.88,27.54 61.97,23.68 18.58,-2.86 35.16,-12.46 48.22,-27.19 0.8,-0.72 1.56,-1.52 2.23,-2.41 0.61,-0.8 1.18,-1.62 1.77,-2.42 2.16,-2.77 4.21,-5.69 6.13,-8.76 4.59,-6.98 8.71,-14.2 12.29,-21.64 23.34,16.93 48.43,49.12 50.72,109.55 -20.33,8.18 -34.78,27.99 -35,51.27 l 0.15,75.87 23.99,0.03 0.25,35.24 c 0.04,6.1 5.02,11.01 11.12,10.96 v 0 c 6.1,-0.04 11.01,-5.02 10.96,-11.12 l -0.25,-35.05 22.87,0.03 0.25,35.18 c 0.04,6.1 5.02,11.01 11.12,10.96 6.1,-0.04 11.01,-5.02 10.96,-11.12 l -0.25,-34.99 z m -203.52,-209.29 c -11.44,1.77 -22.78,-1.87 -27.56,-8.82 -3.59,-5.22 -3.03,-12.05 1.66,-20.3 6.7,-11.78 23.47,-18.49 43.09,-18.49 7.65,0 15.73,1.02 23.82,3.16 0.52,0.14 1.08,0.29 1.66,0.46 -2.07,6.5 -4.67,12.37 -7.69,17.59 -2.19,3.4 -4.52,6.72 -6.99,9.97 -7.74,9.08 -17.29,14.79 -27.99,16.43 z"
     id="path5112"
     inkscape:connector-curvature="0"
     style="fill:#333333;fill-opacity:1" /></svg>